<mxfile host="Electron" agent="Mozilla/5.0 (Windows NT 10.0; Win64; x64) AppleWebKit/537.36 (KHTML, like Gecko) draw.io/24.7.8 Chrome/128.0.6613.36 Electron/32.0.1 Safari/537.36" version="24.7.8">
  <diagram id="uno29H8th-qO8SrL2tuf" name="Page-1">
    <mxGraphModel dx="2703" dy="3367" grid="1" gridSize="10" guides="1" tooltips="1" connect="1" arrows="1" fold="1" page="0" pageScale="1" pageWidth="80" pageHeight="4" background="none" math="0" shadow="0">
      <root>
        <mxCell id="0" />
        <mxCell id="1" parent="0" />
        <mxCell id="node9" value="&lt;p style=&quot;margin:0px;margin-top:4px;text-align:center;&quot;&gt;&lt;b&gt;Admin&lt;/b&gt;&lt;/p&gt;&lt;hr size=&quot;1&quot;/&gt;&lt;p style=&quot;margin:0 0 0 4px;line-height:1.6;&quot;&gt;+ Admin(int, String, String, String, String): &lt;/p&gt;&lt;hr size=&quot;1&quot;/&gt;&lt;p style=&quot;margin:0 0 0 4px;line-height:1.6;&quot;&gt;- ID: int&lt;br/&gt;- password: String&lt;br/&gt;- name: String&lt;br/&gt;- contactNo: String&lt;br/&gt;- email: String&lt;/p&gt;&lt;hr size=&quot;1&quot;/&gt;&lt;p style=&quot;margin:0 0 0 4px;line-height:1.6;&quot;&gt;+ toString(): String&lt;br/&gt;+ displayDetails(): void&lt;/p&gt;&lt;hr size=&quot;1&quot;/&gt;&lt;p style=&quot;margin:0 0 0 4px;line-height:1.6;&quot;&gt; name: String&lt;br/&gt; contactNo: String&lt;br/&gt; password: String&lt;br/&gt; ID: int&lt;br/&gt; email: String&lt;/p&gt;" style="verticalAlign=top;align=left;overflow=fill;fontSize=14;fontFamily=Helvetica;html=1;rounded=0;shadow=0;comic=0;labelBackgroundColor=none;strokeWidth=1;" parent="1" vertex="1">
          <mxGeometry x="430" y="-1610" width="356" height="250" as="geometry" />
        </mxCell>
        <mxCell id="node11" value="&lt;p style=&quot;margin:0px;margin-top:4px;text-align:center;&quot;&gt;&lt;b&gt;AdminManager&lt;/b&gt;&lt;/p&gt;&lt;hr size=&quot;1&quot;/&gt;&lt;p style=&quot;margin:0 0 0 4px;line-height:1.6;&quot;&gt;+ AdminManager(): &lt;/p&gt;&lt;hr size=&quot;1&quot;/&gt;&lt;p style=&quot;margin:0 0 0 4px;line-height:1.6;&quot;&gt;- admins: ArrayList&amp;lt;Admin&amp;gt;&lt;/p&gt;&lt;hr size=&quot;1&quot;/&gt;&lt;p style=&quot;margin:0 0 0 4px;line-height:1.6;&quot;&gt;+ removeAdmin(int): void&lt;br/&gt;+ readAdmins(): void&lt;br/&gt;+ findAdmin(int): Admin?&lt;br/&gt;+ addAdmin(int, String, String, String, String): void&lt;br/&gt;+ saveAdminsToFile(): void&lt;/p&gt;&lt;hr size=&quot;1&quot;/&gt;&lt;p style=&quot;margin:0 0 0 4px;line-height:1.6;&quot;&gt; nextID: int&lt;br/&gt; admins: ArrayList&amp;lt;Admin&amp;gt;&lt;/p&gt;" style="verticalAlign=top;align=left;overflow=fill;fontSize=14;fontFamily=Helvetica;html=1;rounded=0;shadow=0;comic=0;labelBackgroundColor=none;strokeWidth=1;" parent="1" vertex="1">
          <mxGeometry x="405.5" y="-1890" width="430" height="230" as="geometry" />
        </mxCell>
        <mxCell id="node5" value="&lt;p style=&quot;margin:0px;margin-top:4px;text-align:center;&quot;&gt;&lt;b&gt;Booking&lt;/b&gt;&lt;/p&gt;&lt;hr size=&quot;1&quot;/&gt;&lt;p style=&quot;margin:0 0 0 4px;line-height:1.6;&quot;&gt;+ Booking(int, int, int, double, String, String): &lt;/p&gt;&lt;hr size=&quot;1&quot;/&gt;&lt;p style=&quot;margin:0 0 0 4px;line-height:1.6;&quot;&gt;- date: String&lt;br/&gt;- duration: double&lt;br/&gt;- ID: int&lt;br/&gt;- userID: int&lt;br/&gt;- time: String&lt;br/&gt;- tutorID: int&lt;/p&gt;&lt;hr size=&quot;1&quot;/&gt;&lt;p style=&quot;margin:0 0 0 4px;line-height:1.6;&quot;&gt;+ displayDetails(): void&lt;br/&gt;+ toString(): String&lt;/p&gt;&lt;hr size=&quot;1&quot;/&gt;&lt;p style=&quot;margin:0 0 0 4px;line-height:1.6;&quot;&gt; tutorID: int&lt;br/&gt; ID: int&lt;br/&gt; duration: double&lt;br/&gt; date: String&lt;br/&gt; time: String&lt;br/&gt; userID: int&lt;/p&gt;" style="verticalAlign=top;align=left;overflow=fill;fontSize=14;fontFamily=Helvetica;html=1;rounded=0;shadow=0;comic=0;labelBackgroundColor=none;strokeWidth=1;" parent="1" vertex="1">
          <mxGeometry x="-130" y="-970" width="380" height="270" as="geometry" />
        </mxCell>
        <mxCell id="node4" value="&lt;p style=&quot;margin:0px;margin-top:4px;text-align:center;&quot;&gt;&lt;b&gt;BookingManager&lt;/b&gt;&lt;/p&gt;&lt;hr size=&quot;1&quot;/&gt;&lt;p style=&quot;margin:0 0 0 4px;line-height:1.6;&quot;&gt;+ BookingManager(): &lt;/p&gt;&lt;hr size=&quot;1&quot;/&gt;&lt;p style=&quot;margin:0 0 0 4px;line-height:1.6;&quot;&gt;- bookings: ArrayList&amp;lt;Booking&amp;gt;&lt;/p&gt;&lt;hr size=&quot;1&quot;/&gt;&lt;p style=&quot;margin:0 0 0 4px;line-height:1.6;&quot;&gt;+ findBooking(int): Booking?&lt;br/&gt;+ readBookings(): void&lt;br/&gt;+ addBooking(int, int, int, double, String, String): void&lt;br/&gt;+ getBooking(int): ArrayList&amp;lt;Booking&amp;gt;&lt;br/&gt;+ updateBooking(int, String, String): void&lt;br/&gt;+ saveBookingsToFile(): void&lt;br/&gt;+ removeBooking(int): void&lt;/p&gt;&lt;hr size=&quot;1&quot;/&gt;&lt;p style=&quot;margin:0 0 0 4px;line-height:1.6;&quot;&gt; nextID: int&lt;br/&gt; bookings: ArrayList&amp;lt;Booking&amp;gt;&lt;/p&gt;" style="verticalAlign=top;align=left;overflow=fill;fontSize=14;fontFamily=Helvetica;html=1;rounded=0;shadow=0;comic=0;labelBackgroundColor=none;strokeWidth=1;" parent="1" vertex="1">
          <mxGeometry x="-160" y="-650" width="450" height="270" as="geometry" />
        </mxCell>
        <mxCell id="node8" value="&lt;p style=&quot;margin:0px;margin-top:4px;text-align:center;&quot;&gt;&lt;b&gt;FileHandler&lt;/b&gt;&lt;/p&gt;&lt;hr size=&quot;1&quot;/&gt;&lt;p style=&quot;margin:0 0 0 4px;line-height:1.6;&quot;&gt;+ FileHandler(): &lt;/p&gt;&lt;hr size=&quot;1&quot;/&gt;&lt;p style=&quot;margin:0 0 0 4px;line-height:1.6;&quot;&gt;+ isFileExist(String): boolean&lt;br/&gt;+ createFile(String): boolean&lt;br/&gt;+ writeToFile(String, boolean, String): boolean&lt;br/&gt;+ readFromFile(String): String[]&lt;/p&gt;" style="verticalAlign=top;align=left;overflow=fill;fontSize=14;fontFamily=Helvetica;html=1;rounded=0;shadow=0;comic=0;labelBackgroundColor=none;strokeWidth=1;" parent="1" vertex="1">
          <mxGeometry x="405.5" y="-1210" width="399" height="200" as="geometry" />
        </mxCell>
        <mxCell id="node10" value="&lt;p style=&quot;margin:0px;margin-top:4px;text-align:center;&quot;&gt;&lt;b&gt;Payment&lt;/b&gt;&lt;/p&gt;&lt;hr size=&quot;1&quot;/&gt;&lt;p style=&quot;margin:0 0 0 4px;line-height:1.6;&quot;&gt;+ Payment(int, int, int, String, String, double): &lt;/p&gt;&lt;hr size=&quot;1&quot;/&gt;&lt;p style=&quot;margin:0 0 0 4px;line-height:1.6;&quot;&gt;- date: String&lt;br/&gt;- userID: int&lt;br/&gt;- time: String&lt;br/&gt;- ID: int&lt;br/&gt;- amount: double&lt;br/&gt;- bookingID: int&lt;/p&gt;&lt;hr size=&quot;1&quot;/&gt;&lt;p style=&quot;margin:0 0 0 4px;line-height:1.6;&quot;&gt;+ toString(): String&lt;br/&gt;+ displayDetails(): void&lt;/p&gt;&lt;hr size=&quot;1&quot;/&gt;&lt;p style=&quot;margin:0 0 0 4px;line-height:1.6;&quot;&gt; bookingID: int&lt;br/&gt; ID: int&lt;br/&gt; date: String&lt;br/&gt; time: String&lt;br/&gt; amount: double&lt;br/&gt; userID: int&lt;/p&gt;" style="verticalAlign=top;align=left;overflow=fill;fontSize=14;fontFamily=Helvetica;html=1;rounded=0;shadow=0;comic=0;labelBackgroundColor=none;strokeWidth=1;" parent="1" vertex="1">
          <mxGeometry x="-100" y="-1310" width="369" height="270" as="geometry" />
        </mxCell>
        <mxCell id="node6" value="&lt;p style=&quot;margin:0px;margin-top:4px;text-align:center;&quot;&gt;&lt;b&gt;PaymentManager&lt;/b&gt;&lt;/p&gt;&lt;hr size=&quot;1&quot;/&gt;&lt;p style=&quot;margin:0 0 0 4px;line-height:1.6;&quot;&gt;+ PaymentManager(): &lt;/p&gt;&lt;hr size=&quot;1&quot;/&gt;&lt;p style=&quot;margin:0 0 0 4px;line-height:1.6;&quot;&gt;- payments: ArrayList&amp;lt;Payment&amp;gt;&lt;/p&gt;&lt;hr size=&quot;1&quot;/&gt;&lt;p style=&quot;margin:0 0 0 4px;line-height:1.6;&quot;&gt;+ readPayments(): void&lt;br/&gt;+ findPayment(int): Payment?&lt;br/&gt;+ addPayment(int, int, int, String, String, double): void&lt;br/&gt;+ getPaymentByBookingID(int): Payment?&lt;br/&gt;+ savePaymentsToFile(): void&lt;br/&gt;+ getPayments(int): ArrayList&amp;lt;Payment&amp;gt;&lt;/p&gt;&lt;hr size=&quot;1&quot;/&gt;&lt;p style=&quot;margin:0 0 0 4px;line-height:1.6;&quot;&gt; nextID: int&lt;br/&gt; payments: ArrayList&amp;lt;Payment&amp;gt;&lt;/p&gt;" style="verticalAlign=top;align=left;overflow=fill;fontSize=14;fontFamily=Helvetica;html=1;rounded=0;shadow=0;comic=0;labelBackgroundColor=none;strokeWidth=1;" parent="1" vertex="1">
          <mxGeometry x="-140" y="-1600" width="460" height="250" as="geometry" />
        </mxCell>
        <mxCell id="node2" value="&lt;p style=&quot;margin:0px;margin-top:4px;text-align:center;&quot;&gt;&lt;b&gt;Review&lt;/b&gt;&lt;/p&gt;&lt;hr size=&quot;1&quot;/&gt;&lt;p style=&quot;margin:0 0 0 4px;line-height:1.6;&quot;&gt;+ Review(int, int, int, String, int, String): &lt;/p&gt;&lt;hr size=&quot;1&quot;/&gt;&lt;p style=&quot;margin:0 0 0 4px;line-height:1.6;&quot;&gt;- tutorID: int&lt;br/&gt;- date: String&lt;br/&gt;- ID: int&lt;br/&gt;- rating: int&lt;br/&gt;- userID: int&lt;br/&gt;- comment: String&lt;/p&gt;&lt;hr size=&quot;1&quot;/&gt;&lt;p style=&quot;margin:0 0 0 4px;line-height:1.6;&quot;&gt;+ toString(): String&lt;br/&gt;+ displayDetails(): void&lt;/p&gt;&lt;hr size=&quot;1&quot;/&gt;&lt;p style=&quot;margin:0 0 0 4px;line-height:1.6;&quot;&gt; tutorID: int&lt;br/&gt; rating: int&lt;br/&gt; comment: String&lt;br/&gt; ID: int&lt;br/&gt; date: String&lt;br/&gt; userID: int&lt;/p&gt;" style="verticalAlign=top;align=left;overflow=fill;fontSize=14;fontFamily=Helvetica;html=1;rounded=0;shadow=0;comic=0;labelBackgroundColor=none;strokeWidth=1;" parent="1" vertex="1">
          <mxGeometry x="410" y="-820" width="330" height="270" as="geometry" />
        </mxCell>
        <mxCell id="node7" value="&lt;p style=&quot;margin:0px;margin-top:4px;text-align:center;&quot;&gt;&lt;b&gt;ReviewManager&lt;/b&gt;&lt;/p&gt;&lt;hr size=&quot;1&quot;/&gt;&lt;p style=&quot;margin:0 0 0 4px;line-height:1.6;&quot;&gt;+ ReviewManager(): &lt;/p&gt;&lt;hr size=&quot;1&quot;/&gt;&lt;p style=&quot;margin:0 0 0 4px;line-height:1.6;&quot;&gt;- reviews: ArrayList&amp;lt;Review&amp;gt;&lt;/p&gt;&lt;hr size=&quot;1&quot;/&gt;&lt;p style=&quot;margin:0 0 0 4px;line-height:1.6;&quot;&gt;+ findReview(int): Review?&lt;br/&gt;+ readReviews(): void&lt;br/&gt;+ saveReviewsToFile(): void&lt;br/&gt;+ addReview(int, int, int, String, int, String): void&lt;br/&gt;+ removeReview(int): void&lt;/p&gt;&lt;hr size=&quot;1&quot;/&gt;&lt;p style=&quot;margin:0 0 0 4px;line-height:1.6;&quot;&gt; nextID: int&lt;br/&gt; reviews: ArrayList&amp;lt;Review&amp;gt;&lt;/p&gt;" style="verticalAlign=top;align=left;overflow=fill;fontSize=14;fontFamily=Helvetica;html=1;rounded=0;shadow=0;comic=0;labelBackgroundColor=none;strokeWidth=1;" parent="1" vertex="1">
          <mxGeometry x="374.5" y="-470" width="401" height="230" as="geometry" />
        </mxCell>
        <mxCell id="node1" value="&lt;p style=&quot;margin:0px;margin-top:4px;text-align:center;&quot;&gt;&lt;b&gt;Tutor&lt;/b&gt;&lt;/p&gt;&lt;hr size=&quot;1&quot;/&gt;&lt;p style=&quot;margin:0 0 0 4px;line-height:1.6;&quot;&gt;+ Tutor(int, String, String, String, int, String, String, int, double): &lt;/p&gt;&lt;hr size=&quot;1&quot;/&gt;&lt;p style=&quot;margin:0 0 0 4px;line-height:1.6;&quot;&gt;- subject: String&lt;br/&gt;- costPerHour: double&lt;br/&gt;- subjectExpertise: int&lt;/p&gt;&lt;hr size=&quot;1&quot;/&gt;&lt;p style=&quot;margin:0 0 0 4px;line-height:1.6;&quot;&gt;+ toString(): String&lt;br/&gt;+ calculateCost(double): double&lt;br/&gt;+ displayDetails(): void&lt;/p&gt;&lt;hr size=&quot;1&quot;/&gt;&lt;p style=&quot;margin:0 0 0 4px;line-height:1.6;&quot;&gt; costPerHour: double&lt;br/&gt; subjectExpertise: int&lt;br/&gt; subject: String&lt;/p&gt;" style="verticalAlign=top;align=left;overflow=fill;fontSize=14;fontFamily=Helvetica;html=1;rounded=0;shadow=0;comic=0;labelBackgroundColor=none;strokeWidth=1;fillColor=default;strokeColor=default;" parent="1" vertex="1">
          <mxGeometry x="918.25" y="-880" width="463" height="230" as="geometry" />
        </mxCell>
        <mxCell id="node12" value="&lt;p style=&quot;margin:0px;margin-top:4px;text-align:center;&quot;&gt;&lt;b&gt;TutorsManager&lt;/b&gt;&lt;/p&gt;&lt;hr size=&quot;1&quot;/&gt;&lt;p style=&quot;margin:0 0 0 4px;line-height:1.6;&quot;&gt;+ TutorsManager(): &lt;/p&gt;&lt;hr size=&quot;1&quot;/&gt;&lt;p style=&quot;margin:0 0 0 4px;line-height:1.6;&quot;&gt;+ readTutors(): void&lt;br/&gt;+ addTutor(int, String, String, String, int, String, String, int, double): void&lt;br/&gt;+ removeTutor(int): void&lt;br/&gt;+ findTutor(int): Tutor&lt;br/&gt;+ saveTutorsToFile(): void&lt;br/&gt;+ updateTutor(int, String, String, String, int, String, String, int, double): void&lt;/p&gt;&lt;hr size=&quot;1&quot;/&gt;&lt;p style=&quot;margin:0 0 0 4px;line-height:1.6;&quot;&gt; nextID: int&lt;br/&gt; tutorsAsArrayList: ArrayList&amp;lt;Tutor&amp;gt;&lt;/p&gt;" style="verticalAlign=top;align=left;overflow=fill;fontSize=14;fontFamily=Helvetica;html=1;rounded=0;shadow=0;comic=0;labelBackgroundColor=none;strokeWidth=1;" parent="1" vertex="1">
          <mxGeometry x="900" y="-590" width="499.5" height="270" as="geometry" />
        </mxCell>
        <mxCell id="node3" value="&lt;p style=&quot;margin:0px;margin-top:4px;text-align:center;&quot;&gt;&lt;b&gt;User&lt;/b&gt;&lt;/p&gt;&lt;hr size=&quot;1&quot;/&gt;&lt;p style=&quot;margin:0 0 0 4px;line-height:1.6;&quot;&gt;+ User(int, String, String, String, String, int, String): &lt;/p&gt;&lt;hr size=&quot;1&quot;/&gt;&lt;p style=&quot;margin:0 0 0 4px;line-height:1.6;&quot;&gt;# email: String&lt;br/&gt;# age: int&lt;br/&gt;# ID: int&lt;br/&gt;# password: String&lt;br/&gt;# ContactNo: String&lt;br/&gt;# name: String&lt;br/&gt;# gender: String&lt;/p&gt;&lt;hr size=&quot;1&quot;/&gt;&lt;p style=&quot;margin:0 0 0 4px;line-height:1.6;&quot;&gt;+ displayDetails(): void&lt;br/&gt;+ toString(): String&lt;/p&gt;&lt;hr size=&quot;1&quot;/&gt;&lt;p style=&quot;margin:0 0 0 4px;line-height:1.6;&quot;&gt; name: String&lt;br/&gt; password: String&lt;br/&gt; ID: int&lt;br/&gt; age: int&lt;br/&gt; gender: String&lt;br/&gt; ContactNo: String&lt;br/&gt; email: String&lt;/p&gt;" style="verticalAlign=top;align=left;overflow=fill;fontSize=14;fontFamily=Helvetica;html=1;rounded=0;shadow=0;comic=0;labelBackgroundColor=none;strokeWidth=1;" parent="1" vertex="1">
          <mxGeometry x="950" y="-1330" width="410" height="290" as="geometry" />
        </mxCell>
        <mxCell id="node0" value="&lt;p style=&quot;margin:0px;margin-top:4px;text-align:center;&quot;&gt;&lt;b&gt;UserManager&lt;/b&gt;&lt;/p&gt;&lt;hr size=&quot;1&quot;/&gt;&lt;p style=&quot;margin:0 0 0 4px;line-height:1.6;&quot;&gt;+ UserManager(): &lt;/p&gt;&lt;hr size=&quot;1&quot;/&gt;&lt;p style=&quot;margin:0 0 0 4px;line-height:1.6;&quot;&gt;- users: ArrayList&amp;lt;User&amp;gt;&lt;/p&gt;&lt;hr size=&quot;1&quot;/&gt;&lt;p style=&quot;margin:0 0 0 4px;line-height:1.6;&quot;&gt;+ removeUser(int): void&lt;br/&gt;+ findUser(int): User?&lt;br/&gt;+ saveUsersToFile(): void&lt;br/&gt;+ addUser(int, String, String, String, String, int, String): void&lt;br/&gt;+ readUsers(): void&lt;br/&gt;+ updateUser(int, String, String, String, String, int, String): void&lt;/p&gt;&lt;hr size=&quot;1&quot;/&gt;&lt;p style=&quot;margin:0 0 0 4px;line-height:1.6;&quot;&gt; nextID: int&lt;br/&gt; users: ArrayList&amp;lt;User&amp;gt;&lt;/p&gt;" style="verticalAlign=top;align=left;overflow=fill;fontSize=14;fontFamily=Helvetica;html=1;rounded=0;shadow=0;comic=0;labelBackgroundColor=none;strokeWidth=1;" parent="1" vertex="1">
          <mxGeometry x="900" y="-1650" width="526" height="250" as="geometry" />
        </mxCell>
        <mxCell id="49RR6xJiN3F37z6vn0Dk-2" value="List Item" style="text;strokeColor=none;fillColor=none;align=left;verticalAlign=middle;spacingLeft=4;spacingRight=4;overflow=hidden;points=[[0,0.5],[1,0.5]];portConstraint=eastwest;rotatable=0;whiteSpace=wrap;html=1;" parent="1" vertex="1">
          <mxGeometry x="100" y="-530" width="80" height="30" as="geometry" />
        </mxCell>
        <mxCell id="T05zYc3YgfRkabnaSPEQ-11" value="" style="endArrow=block;endSize=16;endFill=0;html=1;rounded=0;exitX=0.481;exitY=0.001;exitDx=0;exitDy=0;exitPerimeter=0;" parent="1" source="node1" edge="1">
          <mxGeometry width="160" relative="1" as="geometry">
            <mxPoint x="1160" y="-890" as="sourcePoint" />
            <mxPoint x="1141" y="-1040" as="targetPoint" />
          </mxGeometry>
        </mxCell>
        <mxCell id="T05zYc3YgfRkabnaSPEQ-12" value="" style="endArrow=open;endSize=12;dashed=1;html=1;rounded=0;exitX=0.999;exitY=0.309;exitDx=0;exitDy=0;exitPerimeter=0;entryX=0;entryY=1;entryDx=0;entryDy=0;" parent="1" target="node8" edge="1">
          <mxGeometry width="160" relative="1" as="geometry">
            <mxPoint x="290.00000000000017" y="-566.5700000000002" as="sourcePoint" />
            <mxPoint x="700.45" y="-1160" as="targetPoint" />
          </mxGeometry>
        </mxCell>
        <mxCell id="T05zYc3YgfRkabnaSPEQ-13" value="" style="endArrow=open;endSize=12;dashed=1;html=1;rounded=0;exitX=1;exitY=1;exitDx=0;exitDy=0;entryX=0;entryY=0;entryDx=0;entryDy=0;" parent="1" source="node6" target="node8" edge="1">
          <mxGeometry width="160" relative="1" as="geometry">
            <mxPoint x="530" y="-870" as="sourcePoint" />
            <mxPoint x="690" y="-870" as="targetPoint" />
          </mxGeometry>
        </mxCell>
        <mxCell id="T05zYc3YgfRkabnaSPEQ-14" value="" style="endArrow=open;endSize=12;dashed=1;html=1;rounded=0;exitX=0;exitY=1;exitDx=0;exitDy=0;entryX=1;entryY=0;entryDx=0;entryDy=0;" parent="1" source="node0" target="node8" edge="1">
          <mxGeometry width="160" relative="1" as="geometry">
            <mxPoint x="580" y="-860" as="sourcePoint" />
            <mxPoint x="740" y="-860" as="targetPoint" />
          </mxGeometry>
        </mxCell>
        <mxCell id="T05zYc3YgfRkabnaSPEQ-16" value="" style="endArrow=open;endSize=12;dashed=1;html=1;rounded=0;exitX=0;exitY=0;exitDx=0;exitDy=0;entryX=1;entryY=1;entryDx=0;entryDy=0;" parent="1" source="node12" target="node8" edge="1">
          <mxGeometry width="160" relative="1" as="geometry">
            <mxPoint x="760" y="-780" as="sourcePoint" />
            <mxPoint x="920" y="-780" as="targetPoint" />
          </mxGeometry>
        </mxCell>
        <mxCell id="T05zYc3YgfRkabnaSPEQ-19" value="" style="endArrow=open;endSize=12;dashed=1;html=1;rounded=0;entryX=0.56;entryY=-0.015;entryDx=0;entryDy=0;entryPerimeter=0;" parent="1" target="node8" edge="1">
          <mxGeometry width="160" relative="1" as="geometry">
            <mxPoint x="840" y="-1790" as="sourcePoint" />
            <mxPoint x="810" y="-1360" as="targetPoint" />
            <Array as="points">
              <mxPoint x="860" y="-1790" />
              <mxPoint x="860" y="-1380" />
              <mxPoint x="629" y="-1280" />
            </Array>
          </mxGeometry>
        </mxCell>
        <mxCell id="T05zYc3YgfRkabnaSPEQ-20" value="" style="endArrow=open;endSize=12;dashed=1;html=1;rounded=0;exitX=0.998;exitY=0.586;exitDx=0;exitDy=0;exitPerimeter=0;entryX=0.5;entryY=1;entryDx=0;entryDy=0;" parent="1" source="node7" target="node8" edge="1">
          <mxGeometry width="160" relative="1" as="geometry">
            <mxPoint x="600" y="-510" as="sourcePoint" />
            <mxPoint x="760" y="-510" as="targetPoint" />
            <Array as="points">
              <mxPoint x="810" y="-335" />
              <mxPoint x="810" y="-830" />
              <mxPoint x="605" y="-890" />
            </Array>
          </mxGeometry>
        </mxCell>
        <mxCell id="DVtDeg2e9qQKfoTN9wPS-4" value="" style="endArrow=classic;html=1;rounded=0;exitX=0.525;exitY=1.003;exitDx=0;exitDy=0;exitPerimeter=0;entryX=0.546;entryY=0.007;entryDx=0;entryDy=0;entryPerimeter=0;" edge="1" parent="1" source="node6" target="node10">
          <mxGeometry width="50" height="50" relative="1" as="geometry">
            <mxPoint x="190" y="-1240" as="sourcePoint" />
            <mxPoint x="240" y="-1290" as="targetPoint" />
          </mxGeometry>
        </mxCell>
        <mxCell id="DVtDeg2e9qQKfoTN9wPS-5" value="" style="endArrow=classic;html=1;rounded=0;entryX=0.5;entryY=1;entryDx=0;entryDy=0;exitX=0.489;exitY=0.005;exitDx=0;exitDy=0;exitPerimeter=0;" edge="1" parent="1" source="node4" target="node5">
          <mxGeometry width="50" height="50" relative="1" as="geometry">
            <mxPoint x="80" y="-630" as="sourcePoint" />
            <mxPoint x="130" y="-680" as="targetPoint" />
          </mxGeometry>
        </mxCell>
        <mxCell id="DVtDeg2e9qQKfoTN9wPS-6" value="" style="endArrow=classic;html=1;rounded=0;entryX=0.5;entryY=1;entryDx=0;entryDy=0;exitX=0.5;exitY=0;exitDx=0;exitDy=0;" edge="1" parent="1" source="node7" target="node2">
          <mxGeometry width="50" height="50" relative="1" as="geometry">
            <mxPoint x="510" y="-530" as="sourcePoint" />
            <mxPoint x="580" y="-540" as="targetPoint" />
          </mxGeometry>
        </mxCell>
        <mxCell id="DVtDeg2e9qQKfoTN9wPS-7" value="" style="endArrow=classic;html=1;rounded=0;entryX=0.5;entryY=1;entryDx=0;entryDy=0;" edge="1" parent="1" source="node12" target="node1">
          <mxGeometry width="50" height="50" relative="1" as="geometry">
            <mxPoint x="990" y="-720" as="sourcePoint" />
            <mxPoint x="1040" y="-770" as="targetPoint" />
          </mxGeometry>
        </mxCell>
        <mxCell id="DVtDeg2e9qQKfoTN9wPS-8" value="" style="endArrow=classic;html=1;rounded=0;entryX=0.5;entryY=0;entryDx=0;entryDy=0;exitX=0.483;exitY=0.998;exitDx=0;exitDy=0;exitPerimeter=0;" edge="1" parent="1" source="node0" target="node3">
          <mxGeometry width="50" height="50" relative="1" as="geometry">
            <mxPoint x="990" y="-1320" as="sourcePoint" />
            <mxPoint x="1040" y="-1370" as="targetPoint" />
          </mxGeometry>
        </mxCell>
        <mxCell id="DVtDeg2e9qQKfoTN9wPS-9" value="" style="endArrow=classic;html=1;rounded=0;entryX=0.445;entryY=0.008;entryDx=0;entryDy=0;entryPerimeter=0;" edge="1" parent="1" target="node9">
          <mxGeometry width="50" height="50" relative="1" as="geometry">
            <mxPoint x="588" y="-1660" as="sourcePoint" />
            <mxPoint x="1040" y="-1600" as="targetPoint" />
          </mxGeometry>
        </mxCell>
      </root>
    </mxGraphModel>
  </diagram>
</mxfile>
